<?xml version="1.0" standalone="no"?>
<!DOCTYPE svg PUBLIC "-//W3C//DTD SVG 20010904//EN"
 "http://www.w3.org/TR/2001/REC-SVG-20010904/DTD/svg10.dtd">
<svg version="1.0" xmlns="http://www.w3.org/2000/svg"
 width="200.000000pt" height="200.000000pt" viewBox="0 0 200.000000 200.000000"
 preserveAspectRatio="xMidYMid meet">
<metadata>
Created by potrace 1.11, written by Peter Selinger 2001-2013
</metadata>
<g transform="translate(0.000000,200.000000) scale(0.100000,-0.100000)"
fill="#000000" stroke="none">
<path d="M1095 1849 c-33 -3 -79 -16 -103 -28 -28 -14 -48 -19 -55 -13 -22 17
-98 30 -156 27 -74 -3 -154 -39 -205 -92 -34 -35 -46 -42 -95 -47 -117 -13
-230 -99 -267 -203 -12 -35 -25 -53 -44 -62 -45 -19 -112 -92 -139 -151 -38
-82 -38 -184 -2 -265 31 -67 92 -134 149 -161 91 -44 210 -46 291 -5 34 18 39
18 66 3 83 -44 194 -47 282 -7 50 22 52 23 68 5 9 -10 48 -35 87 -55 93 -49
141 -94 175 -163 28 -56 28 -60 31 -272 l3 -215 40 1 c21 1 47 2 57 3 17 1 18
14 17 189 -1 315 18 373 158 467 46 31 97 90 110 127 5 13 0 19 -16 23 -45 12
-83 11 -120 -2 -67 -22 -105 18 -50 54 20 14 47 18 110 18 l83 0 0 30 c-1 70
-69 163 -145 196 -22 9 -67 20 -100 23 -71 7 -91 11 -127 25 -24 9 -29 7 -46
-22 -25 -41 -34 -70 -37 -125 -4 -52 24 -137 56 -170 26 -28 22 -66 -8 -70
-14 -2 -29 7 -47 30 -32 43 -65 116 -66 146 0 17 -6 22 -27 23 -53 2 -88 -3
-122 -17 -37 -16 -66 -11 -75 11 -14 37 75 75 173 75 45 0 51 2 51 21 0 12 14
50 30 85 l31 64 -25 25 c-14 14 -33 39 -41 55 -18 35 -16 35 -63 11 -47 -24
-129 -39 -182 -34 -36 4 -40 2 -40 -18 0 -32 -47 -120 -87 -161 -49 -50 -132
-85 -222 -94 -81 -7 -119 -20 -170 -58 -42 -31 -52 -32 -69 -6 -11 18 -9 24
17 49 42 41 114 72 179 77 31 3 68 7 81 10 l24 5 -29 30 c-15 16 -50 39 -76
51 -37 17 -48 27 -46 41 9 57 93 32 173 -50 l43 -45 25 18 c51 38 117 172 89
182 -6 2 -29 16 -51 33 -43 31 -52 58 -26 79 13 11 20 10 43 -9 86 -70 197
-86 287 -41 47 24 50 27 51 66 1 50 9 64 34 64 24 0 29 -9 36 -62 13 -90 73
-170 151 -203 57 -24 68 -20 81 30 13 50 48 110 80 138 16 15 25 16 40 8 26
-14 24 -26 -15 -81 -17 -25 -35 -61 -41 -81 l-9 -36 46 -12 c68 -18 127 -56
169 -110 21 -26 45 -47 53 -46 29 5 85 33 122 63 39 31 61 33 71 6 12 -32 -72
-105 -144 -124 l-35 -9 0 -93 c0 -69 -5 -102 -17 -127 -10 -19 -18 -37 -18
-40 0 -3 19 -19 43 -35 79 -54 121 -122 92 -146 -15 -12 -55 -5 -55 10 0 17
-58 75 -92 93 l-35 18 -60 -40 c-115 -76 -126 -109 -128 -384 -2 -234 -5 -225
74 -223 l43 2 22 75 c38 130 111 227 218 289 100 57 157 125 180 215 7 28 24
68 39 90 42 64 58 122 54 200 -3 67 -31 155 -53 169 -6 4 -7 18 -3 34 11 40 4
120 -16 176 -23 64 -89 136 -156 172 -36 18 -61 40 -73 62 -25 46 -77 90 -144
121 -43 20 -71 25 -131 26 -42 0 -82 5 -90 11 -26 21 -97 53 -136 62 -21 4
-65 5 -98 1z"/>
</g>
</svg>
